<svg xmlns="http://www.w3.org/2000/svg" width="72" height="72" fill="none"><path fill="#81B3D2" fill-rule="evenodd" d="M67 32.661c.04-.602.067-1.206.067-1.818 0-.381-.015-.759-.03-1.137v-.003C66.39 14.303 52.743 2 35.994 2 19.247 2 5.6 14.303 4.955 29.703c-.017.38-.032.759-.032 1.14 0 .612.027 1.216.068 1.818h62.01ZM20.45 43.276l-5.174-3.945-5.176 3.945-6.014-4.582 1.673-2.388 4.341 3.306 5.177-3.944 5.174 3.944 5.175-3.944 5.178 3.944 5.178-3.944 5.178 3.944 5.18-3.944 5.176 3.944 5.18-3.943 5.186 3.944 4.348-3.308 1.672 2.39-6.02 4.58-5.186-3.945-5.18 3.946-5.177-3.945-5.179 3.945-5.178-3.945-5.178 3.945-5.178-3.945-5.176 3.945ZM4.019 47.403H67.97c2.21 0 4.018 1.885 4.018 4.192V55c0 2.306-1.809 4.192-4.019 4.192h-.903v1.024c0 5.38-4.22 9.783-9.377 9.783h-43.39c-5.158 0-9.377-4.402-9.377-9.783v-1.024H4.02C1.809 59.193 0 57.307 0 55.001v-3.406c0-2.307 1.809-4.192 4.019-4.192Zm53.67 19.64c3.608 0 6.542-3.063 6.542-6.825l-.001-1.024H7.757v1.024c0 3.762 2.936 6.824 6.542 6.824h43.39ZM69.154 55c0 .669-.542 1.235-1.183 1.235H4.02c-.642 0-1.184-.565-1.184-1.235v-3.406c0-.669.543-1.236 1.183-1.236h63.95c.642 0 1.184.566 1.184 1.236V55Zm-4.955-25.298C63.546 15.957 51.146 4.958 35.994 4.958c-15.152 0-27.55 11-28.204 24.745h56.408Z" clip-rule="evenodd"/><path fill="#81B3D2" d="M34.958 19.29c1.074 0 1.945-.909 1.945-2.03 0-1.121-.87-2.03-1.945-2.03-1.074 0-1.945.909-1.945 2.03 0 1.121.87 2.03 1.945 2.03ZM27.18 14.26c1.074 0 1.945-.909 1.945-2.03 0-1.121-.871-2.03-1.946-2.03s-1.946.909-1.946 2.03c0 1.121.871 2.03 1.946 2.03ZM42.737 14.26c1.075 0 1.946-.909 1.946-2.03 0-1.121-.871-2.03-1.946-2.03s-1.946.909-1.946 2.03c0 1.121.871 2.03 1.946 2.03Z"/></svg>