<svg xmlns="http://www.w3.org/2000/svg" width="72" height="72" fill="none"><path fill="#81B3D2" fill-rule="evenodd" d="M43.656 65.033h-16V41.21h16v23.823Zm-2.938-20.899H30.593V62.11h10.125V44.134Z" clip-rule="evenodd"/><path fill="#81B3D2" fill-rule="evenodd" d="M68.915 37.253 71 35.185l-7.942-7.865V0H49.186v13.567L35.501 0 0 35.185l2.086 2.068 5.857-5.795v37.618H3.99V72h64.15v-2.924h-5.08V31.458l5.856 5.795Zm-8.913 31.823H10.999V28.534L35.5 4.149l24.502 24.385v40.542Zm-7.938-52.584 7.938 7.902V2.924h-7.938v13.568Z" clip-rule="evenodd"/><path fill="#81B3D2" fill-rule="evenodd" d="M35.656 34.793c-4.28 0-7.75-3.452-7.75-7.713 0-4.26 3.469-7.713 7.75-7.713 4.279 0 7.75 3.454 7.75 7.713 0 4.26-3.471 7.713-7.75 7.713Zm4.969-7.713c0-2.731-2.225-4.945-4.969-4.945-2.745 0-4.97 2.214-4.97 4.945 0 2.732 2.224 4.948 4.97 4.948 2.744 0 4.969-2.216 4.969-4.948ZM15.061 41.21h3v3.919h-3v-3.92Zm8.938 0h-3v3.919h3v-3.92Zm-8.938 5.972h3V51.1h-3v-3.92Zm8.938 0h-3V51.1h3v-3.92Zm22.999-5.972h3v3.919h-3v-3.92Zm8.938 0h-3v3.919h3v-3.92Zm-8.938 5.972h3V51.1h-3v-3.92Zm8.938 0h-3V51.1h3v-3.92Z" clip-rule="evenodd"/></svg>